<svg xmlns="http://www.w3.org/2000/svg" xmlns:xlink="http://www.w3.org/1999/xlink" width="500" zoomAndPan="magnify" viewBox="0 0 375 374.999991" height="500" preserveAspectRatio="xMidYMid meet" version="1.0"><defs><g/><clipPath id="756875476d"><path d="M 90 131 L 277 131 L 277 268.65625 L 90 268.65625 Z M 90 131 " clip-rule="nonzero"/></clipPath><clipPath id="f61073283a"><path d="M 50.03125 13 L 311 13 L 311 187 L 50.03125 187 Z M 50.03125 13 " clip-rule="nonzero"/></clipPath><clipPath id="7e213c7466"><path d="M 60 9.90625 L 325 9.90625 L 325 183 L 60 183 Z M 60 9.90625 " clip-rule="nonzero"/></clipPath></defs><g fill="#40b93c" fill-opacity="1"><g transform="translate(75.640387, 320.819719)"><g><path d="M 25.90625 -38.96875 L 25.90625 -13 C 25.90625 -8.90625 24.90625 -5.601562 22.90625 -3.09375 C 20.914062 -0.59375 17.613281 0.65625 13 0.65625 C 5.164062 0.65625 1.140625 -3.585938 0.921875 -12.078125 L 8.375 -13.0625 L 8.375 -12.734375 C 8.488281 -10.734375 8.863281 -9.125 9.5 -7.90625 C 10.132812 -6.695312 11.394531 -6.09375 13.28125 -6.09375 C 15.238281 -6.09375 16.523438 -6.671875 17.140625 -7.828125 C 17.753906 -8.992188 18.0625 -10.71875 18.0625 -13 L 18.0625 -38.96875 Z M 25.90625 -38.96875 "/></g></g></g><g fill="#40b93c" fill-opacity="1"><g transform="translate(105.896334, 320.819719)"><g><path d="M 11.75 -16.328125 C 11.75 -14.148438 11.84375 -12.585938 12.03125 -11.640625 C 12.320312 -10.015625 13.070312 -8.679688 14.28125 -7.640625 C 15.5 -6.609375 17.285156 -6.09375 19.640625 -6.09375 C 21.816406 -6.09375 23.445312 -6.488281 24.53125 -7.28125 C 25.625 -8.082031 26.332031 -9.179688 26.65625 -10.578125 C 26.988281 -11.984375 27.15625 -13.878906 27.15625 -16.265625 L 27.15625 -38.96875 L 35 -38.96875 L 35 -17.625 C 35 -14.363281 34.851562 -11.71875 34.5625 -9.6875 C 33.507812 -2.789062 28.609375 0.65625 19.859375 0.65625 C 15.179688 0.65625 11.679688 -0.128906 9.359375 -1.703125 C 7.035156 -3.285156 5.546875 -5.289062 4.890625 -7.71875 C 4.242188 -10.15625 3.921875 -13.222656 3.921875 -16.921875 L 3.921875 -38.96875 L 11.75 -38.96875 Z M 11.75 -16.328125 "/></g></g></g><g fill="#40b93c" fill-opacity="1"><g transform="translate(145.185519, 320.819719)"><g><path d="M 30.859375 -35.3125 C 34.671875 -31.90625 36.578125 -26.46875 36.578125 -19 C 36.578125 -12.71875 34.890625 -7.800781 31.515625 -4.25 C 28.859375 -1.414062 24.773438 0 19.265625 0 L 3.921875 0 L 3.921875 -38.96875 L 19.109375 -38.96875 C 21.859375 -38.96875 24.140625 -38.6875 25.953125 -38.125 C 27.773438 -37.5625 29.410156 -36.625 30.859375 -35.3125 Z M 28.46875 -19.421875 C 28.46875 -23.160156 28.019531 -25.960938 27.125 -27.828125 C 26.238281 -29.703125 24.960938 -30.925781 23.296875 -31.5 C 21.628906 -32.082031 19.34375 -32.375 16.4375 -32.375 L 11.75 -32.375 L 11.75 -6.578125 L 18.28125 -6.578125 C 20.71875 -6.578125 22.648438 -6.894531 24.078125 -7.53125 C 25.515625 -8.164062 26.601562 -9.410156 27.34375 -11.265625 C 28.09375 -13.117188 28.46875 -15.835938 28.46875 -19.421875 Z M 28.46875 -19.421875 "/></g></g></g><g fill="#40b93c" fill-opacity="1"><g transform="translate(184.474705, 320.819719)"><g><path d="M 32.875 -32.375 L 11.8125 -32.375 L 11.8125 -23.734375 L 31.40625 -23.734375 L 31.40625 -17.140625 L 11.8125 -17.140625 L 11.8125 -6.578125 L 33.578125 -6.578125 L 33.578125 0 L 3.96875 0 L 3.96875 -38.96875 L 32.875 -38.96875 Z M 32.875 -32.375 "/></g></g></g><g fill="#40b93c" fill-opacity="1"><g transform="translate(220.770944, 320.819719)"><g><path d="M 20.734375 -39.625 C 24.722656 -39.625 28.097656 -38.648438 30.859375 -36.703125 C 33.617188 -34.765625 35.453125 -31.925781 36.359375 -28.1875 L 28.578125 -26.34375 C 28.097656 -28.375 27.132812 -29.96875 25.6875 -31.125 C 24.238281 -32.289062 22.460938 -32.875 20.359375 -32.875 C 17.304688 -32.875 14.925781 -31.789062 13.21875 -29.625 C 11.519531 -27.46875 10.671875 -24.175781 10.671875 -19.75 C 10.671875 -15.6875 11.367188 -12.394531 12.765625 -9.875 C 14.160156 -7.351562 16.65625 -6.09375 20.25 -6.09375 C 22.53125 -6.09375 24.378906 -6.816406 25.796875 -8.265625 C 27.210938 -9.722656 28.226562 -11.738281 28.84375 -14.3125 L 36.46875 -11.921875 C 35.414062 -7.671875 33.488281 -4.507812 30.6875 -2.4375 C 27.894531 -0.375 24.429688 0.65625 20.296875 0.65625 C 16.773438 0.65625 13.671875 -0.160156 10.984375 -1.796875 C 8.304688 -3.429688 6.234375 -5.734375 4.765625 -8.703125 C 3.296875 -11.679688 2.5625 -15.164062 2.5625 -19.15625 C 2.5625 -22.707031 3.175781 -26.035156 4.40625 -29.140625 C 5.644531 -32.242188 7.625 -34.765625 10.34375 -36.703125 C 13.0625 -38.648438 16.523438 -39.625 20.734375 -39.625 Z M 20.734375 -39.625 "/></g></g></g><g fill="#40b93c" fill-opacity="1"><g transform="translate(260.060129, 320.819719)"><g><path d="M 39.125 0 L 30.53125 0 L 27.15625 -8.8125 L 11.59375 -8.8125 L 8.375 0 L 0 0 L 15.1875 -38.96875 L 23.515625 -38.96875 Z M 13.984375 -15.40625 L 24.65625 -15.40625 L 19.265625 -29.875 Z M 13.984375 -15.40625 "/></g></g></g><g fill="#000000" fill-opacity="1"><g transform="translate(91.578406, 344.285318)"><g><path d="M 4.875 -9.65625 L 6.03125 -9.65625 L 6.03125 -2.75 C 6.03125 -1.820312 5.78125 -1.109375 5.28125 -0.609375 C 4.789062 -0.117188 4.125 0.125 3.28125 0.125 C 2.75 0.125 2.273438 0.03125 1.859375 -0.15625 C 1.453125 -0.351562 1.128906 -0.628906 0.890625 -0.984375 C 0.660156 -1.335938 0.546875 -1.765625 0.546875 -2.265625 L 1.703125 -2.265625 C 1.703125 -1.859375 1.847656 -1.53125 2.140625 -1.28125 C 2.441406 -1.03125 2.820312 -0.90625 3.28125 -0.90625 C 3.789062 -0.90625 4.179688 -1.0625 4.453125 -1.375 C 4.734375 -1.695312 4.875 -2.15625 4.875 -2.75 Z M 4.875 -9.65625 "/></g></g></g><g fill="#000000" fill-opacity="1"><g transform="translate(99.76858, 344.285318)"><g><path d="M 7.515625 -9.65625 L 8.671875 -9.65625 L 8.671875 -3.265625 C 8.671875 -2.535156 8.5 -1.914062 8.15625 -1.40625 C 7.820312 -0.894531 7.367188 -0.503906 6.796875 -0.234375 C 6.222656 0.0351562 5.597656 0.171875 4.921875 0.171875 C 4.242188 0.171875 3.617188 0.0351562 3.046875 -0.234375 C 2.484375 -0.503906 2.03125 -0.894531 1.6875 -1.40625 C 1.34375 -1.914062 1.171875 -2.535156 1.171875 -3.265625 L 1.171875 -9.65625 L 2.34375 -9.65625 L 2.34375 -3.265625 C 2.34375 -2.765625 2.460938 -2.335938 2.703125 -1.984375 C 2.941406 -1.640625 3.253906 -1.375 3.640625 -1.1875 C 4.035156 -1.007812 4.460938 -0.921875 4.921875 -0.921875 C 5.378906 -0.921875 5.804688 -1.007812 6.203125 -1.1875 C 6.597656 -1.375 6.914062 -1.640625 7.15625 -1.984375 C 7.394531 -2.335938 7.515625 -2.765625 7.515625 -3.265625 Z M 7.515625 -9.65625 "/></g></g></g><g fill="#000000" fill-opacity="1"><g transform="translate(110.600157, 344.285318)"><g><path d="M 1.5625 -9.65625 L 4.4375 -1.53125 L 4.546875 -1.53125 L 7.421875 -9.65625 L 8.640625 -9.65625 L 5.09375 0 L 3.890625 0 L 0.34375 -9.65625 Z M 1.5625 -9.65625 "/></g></g></g><g fill="#000000" fill-opacity="1"><g transform="translate(120.563845, 344.285318)"><g><path d="M 1.171875 0 L 1.171875 -9.65625 L 7 -9.65625 L 7 -8.625 L 2.34375 -8.625 L 2.34375 -5.359375 L 6.703125 -5.359375 L 6.703125 -4.3125 L 2.34375 -4.3125 L 2.34375 -1.03125 L 7.078125 -1.03125 L 7.078125 0 Z M 1.171875 0 "/></g></g></g><g fill="#000000" fill-opacity="1"><g transform="translate(129.48983, 344.285318)"><g><path d="M 8.828125 -9.65625 L 8.828125 0 L 7.703125 0 L 2.4375 -7.578125 L 2.34375 -7.578125 L 2.34375 0 L 1.171875 0 L 1.171875 -9.65625 L 2.296875 -9.65625 L 7.578125 -2.0625 L 7.671875 -2.0625 L 7.671875 -9.65625 Z M 8.828125 -9.65625 "/></g></g></g><g fill="#000000" fill-opacity="1"><g transform="translate(140.472336, 344.285318)"><g><path d="M 0.640625 -8.625 L 0.640625 -9.65625 L 7.890625 -9.65625 L 7.890625 -8.625 L 4.84375 -8.625 L 4.84375 0 L 3.671875 0 L 3.671875 -8.625 Z M 0.640625 -8.625 "/></g></g></g><g fill="#000000" fill-opacity="1"><g transform="translate(149.983203, 344.285318)"><g><path d="M 7.515625 -9.65625 L 8.671875 -9.65625 L 8.671875 -3.265625 C 8.671875 -2.535156 8.5 -1.914062 8.15625 -1.40625 C 7.820312 -0.894531 7.367188 -0.503906 6.796875 -0.234375 C 6.222656 0.0351562 5.597656 0.171875 4.921875 0.171875 C 4.242188 0.171875 3.617188 0.0351562 3.046875 -0.234375 C 2.484375 -0.503906 2.03125 -0.894531 1.6875 -1.40625 C 1.34375 -1.914062 1.171875 -2.535156 1.171875 -3.265625 L 1.171875 -9.65625 L 2.34375 -9.65625 L 2.34375 -3.265625 C 2.34375 -2.765625 2.460938 -2.335938 2.703125 -1.984375 C 2.941406 -1.640625 3.253906 -1.375 3.640625 -1.1875 C 4.035156 -1.007812 4.460938 -0.921875 4.921875 -0.921875 C 5.378906 -0.921875 5.804688 -1.007812 6.203125 -1.1875 C 6.597656 -1.375 6.914062 -1.640625 7.15625 -1.984375 C 7.394531 -2.335938 7.515625 -2.765625 7.515625 -3.265625 Z M 7.515625 -9.65625 "/></g></g></g><g fill="#000000" fill-opacity="1"><g transform="translate(160.814781, 344.285318)"><g><path d="M 4.15625 0 L 1.171875 0 L 1.171875 -9.65625 L 4.28125 -9.65625 C 5.21875 -9.65625 6.019531 -9.460938 6.6875 -9.078125 C 7.351562 -8.691406 7.863281 -8.140625 8.21875 -7.421875 C 8.570312 -6.703125 8.75 -5.84375 8.75 -4.84375 C 8.75 -3.84375 8.566406 -2.976562 8.203125 -2.25 C 7.847656 -1.53125 7.328125 -0.972656 6.640625 -0.578125 C 5.960938 -0.191406 5.132812 0 4.15625 0 Z M 2.34375 -1.03125 L 4.078125 -1.03125 C 5.273438 -1.03125 6.164062 -1.367188 6.75 -2.046875 C 7.332031 -2.734375 7.625 -3.664062 7.625 -4.84375 C 7.625 -6.019531 7.335938 -6.941406 6.765625 -7.609375 C 6.191406 -8.285156 5.335938 -8.625 4.203125 -8.625 L 2.34375 -8.625 Z M 2.34375 -1.03125 "/></g></g></g><g fill="#000000" fill-opacity="1"><g transform="translate(171.344484, 344.285318)"><g/></g></g><g fill="#000000" fill-opacity="1"><g transform="translate(176.063098, 344.285318)"><g><path d="M 4.15625 0 L 1.171875 0 L 1.171875 -9.65625 L 4.28125 -9.65625 C 5.21875 -9.65625 6.019531 -9.460938 6.6875 -9.078125 C 7.351562 -8.691406 7.863281 -8.140625 8.21875 -7.421875 C 8.570312 -6.703125 8.75 -5.84375 8.75 -4.84375 C 8.75 -3.84375 8.566406 -2.976562 8.203125 -2.25 C 7.847656 -1.53125 7.328125 -0.972656 6.640625 -0.578125 C 5.960938 -0.191406 5.132812 0 4.15625 0 Z M 2.34375 -1.03125 L 4.078125 -1.03125 C 5.273438 -1.03125 6.164062 -1.367188 6.75 -2.046875 C 7.332031 -2.734375 7.625 -3.664062 7.625 -4.84375 C 7.625 -6.019531 7.335938 -6.941406 6.765625 -7.609375 C 6.191406 -8.285156 5.335938 -8.625 4.203125 -8.625 L 2.34375 -8.625 Z M 2.34375 -1.03125 "/></g></g></g><g fill="#000000" fill-opacity="1"><g transform="translate(186.592801, 344.285318)"><g><path d="M 1.171875 0 L 1.171875 -9.65625 L 7 -9.65625 L 7 -8.625 L 2.34375 -8.625 L 2.34375 -5.359375 L 6.703125 -5.359375 L 6.703125 -4.3125 L 2.34375 -4.3125 L 2.34375 -1.03125 L 7.078125 -1.03125 L 7.078125 0 Z M 1.171875 0 "/></g></g></g><g fill="#000000" fill-opacity="1"><g transform="translate(195.518786, 344.285318)"><g><path d="M 1.171875 -9.65625 L 2.5625 -9.65625 L 5.84375 -1.640625 L 5.96875 -1.640625 L 9.25 -9.65625 L 10.640625 -9.65625 L 10.640625 0 L 9.546875 0 L 9.546875 -7.34375 L 9.453125 -7.34375 L 6.4375 0 L 5.375 0 L 2.359375 -7.34375 L 2.265625 -7.34375 L 2.265625 0 L 1.171875 0 Z M 1.171875 -9.65625 "/></g></g></g><g fill="#000000" fill-opacity="1"><g transform="translate(208.614411, 344.285318)"><g><path d="M 9.3125 -4.828125 C 9.3125 -3.804688 9.128906 -2.925781 8.765625 -2.1875 C 8.398438 -1.445312 7.894531 -0.875 7.25 -0.46875 C 6.613281 -0.0703125 5.882812 0.125 5.0625 0.125 C 4.226562 0.125 3.488281 -0.0703125 2.84375 -0.46875 C 2.207031 -0.875 1.707031 -1.445312 1.34375 -2.1875 C 0.976562 -2.925781 0.796875 -3.804688 0.796875 -4.828125 C 0.796875 -5.847656 0.976562 -6.726562 1.34375 -7.46875 C 1.707031 -8.207031 2.207031 -8.78125 2.84375 -9.1875 C 3.488281 -9.59375 4.226562 -9.796875 5.0625 -9.796875 C 5.882812 -9.796875 6.613281 -9.59375 7.25 -9.1875 C 7.894531 -8.78125 8.398438 -8.207031 8.765625 -7.46875 C 9.128906 -6.726562 9.3125 -5.847656 9.3125 -4.828125 Z M 8.1875 -4.828125 C 8.1875 -5.660156 8.046875 -6.363281 7.765625 -6.9375 C 7.492188 -7.519531 7.117188 -7.957031 6.640625 -8.25 C 6.171875 -8.550781 5.644531 -8.703125 5.0625 -8.703125 C 4.46875 -8.703125 3.9375 -8.550781 3.46875 -8.25 C 3 -7.957031 2.625 -7.519531 2.34375 -6.9375 C 2.0625 -6.363281 1.921875 -5.660156 1.921875 -4.828125 C 1.921875 -3.992188 2.0625 -3.285156 2.34375 -2.703125 C 2.625 -2.128906 3 -1.695312 3.46875 -1.40625 C 3.9375 -1.113281 4.46875 -0.96875 5.0625 -0.96875 C 5.644531 -0.96875 6.171875 -1.113281 6.640625 -1.40625 C 7.117188 -1.695312 7.492188 -2.128906 7.765625 -2.703125 C 8.046875 -3.285156 8.1875 -3.992188 8.1875 -4.828125 Z M 8.1875 -4.828125 "/></g></g></g><g fill="#000000" fill-opacity="1"><g transform="translate(219.71013, 344.285318)"><g><path d="M 8.9375 -6.640625 L 7.765625 -6.640625 C 7.671875 -7.085938 7.488281 -7.460938 7.21875 -7.765625 C 6.957031 -8.066406 6.640625 -8.296875 6.265625 -8.453125 C 5.890625 -8.617188 5.488281 -8.703125 5.0625 -8.703125 C 4.46875 -8.703125 3.9375 -8.550781 3.46875 -8.25 C 3 -7.957031 2.625 -7.519531 2.34375 -6.9375 C 2.0625 -6.363281 1.921875 -5.660156 1.921875 -4.828125 C 1.921875 -3.992188 2.0625 -3.285156 2.34375 -2.703125 C 2.625 -2.128906 3 -1.695312 3.46875 -1.40625 C 3.9375 -1.113281 4.46875 -0.96875 5.0625 -0.96875 C 5.488281 -0.96875 5.890625 -1.046875 6.265625 -1.203125 C 6.640625 -1.359375 6.957031 -1.585938 7.21875 -1.890625 C 7.488281 -2.191406 7.671875 -2.566406 7.765625 -3.015625 L 8.9375 -3.015625 C 8.820312 -2.359375 8.578125 -1.796875 8.203125 -1.328125 C 7.835938 -0.859375 7.382812 -0.5 6.84375 -0.25 C 6.300781 0 5.707031 0.125 5.0625 0.125 C 4.226562 0.125 3.488281 -0.0703125 2.84375 -0.46875 C 2.207031 -0.875 1.707031 -1.445312 1.34375 -2.1875 C 0.976562 -2.925781 0.796875 -3.804688 0.796875 -4.828125 C 0.796875 -5.847656 0.976562 -6.726562 1.34375 -7.46875 C 1.707031 -8.207031 2.207031 -8.78125 2.84375 -9.1875 C 3.488281 -9.59375 4.226562 -9.796875 5.0625 -9.796875 C 5.707031 -9.796875 6.300781 -9.671875 6.84375 -9.421875 C 7.382812 -9.171875 7.835938 -8.804688 8.203125 -8.328125 C 8.578125 -7.859375 8.820312 -7.296875 8.9375 -6.640625 Z M 8.9375 -6.640625 "/></g></g></g><g fill="#000000" fill-opacity="1"><g transform="translate(230.35303, 344.285318)"><g><path d="M 1.171875 0 L 1.171875 -9.65625 L 4.4375 -9.65625 C 5.1875 -9.65625 5.800781 -9.523438 6.28125 -9.265625 C 6.769531 -9.015625 7.128906 -8.664062 7.359375 -8.21875 C 7.597656 -7.769531 7.71875 -7.265625 7.71875 -6.703125 C 7.71875 -6.054688 7.566406 -5.492188 7.265625 -5.015625 C 6.972656 -4.546875 6.519531 -4.203125 5.90625 -3.984375 L 8.09375 0 L 6.734375 0 L 4.703125 -3.78125 C 4.617188 -3.769531 4.535156 -3.765625 4.453125 -3.765625 L 2.34375 -3.765625 L 2.34375 0 Z M 2.34375 -4.828125 L 4.421875 -4.828125 C 5.191406 -4.828125 5.738281 -4.992188 6.0625 -5.328125 C 6.394531 -5.660156 6.5625 -6.117188 6.5625 -6.703125 C 6.5625 -7.273438 6.394531 -7.738281 6.0625 -8.09375 C 5.726562 -8.445312 5.171875 -8.625 4.390625 -8.625 L 2.34375 -8.625 Z M 2.34375 -4.828125 "/></g></g></g><g fill="#000000" fill-opacity="1"><g transform="translate(239.826166, 344.285318)"><g><path d="M 1.5625 0 L 0.34375 0 L 3.890625 -9.65625 L 5.09375 -9.65625 L 8.640625 0 L 7.421875 0 L 6.4375 -2.734375 L 2.53125 -2.734375 Z M 2.90625 -3.765625 L 6.078125 -3.765625 L 4.53125 -8.125 L 4.453125 -8.125 Z M 2.90625 -3.765625 "/></g></g></g><g fill="#000000" fill-opacity="1"><g transform="translate(249.789853, 344.285318)"><g><path d="M 0.640625 -8.625 L 0.640625 -9.65625 L 7.890625 -9.65625 L 7.890625 -8.625 L 4.84375 -8.625 L 4.84375 0 L 3.671875 0 L 3.671875 -8.625 Z M 0.640625 -8.625 "/></g></g></g><g fill="#000000" fill-opacity="1"><g transform="translate(259.30072, 344.285318)"><g><path d="M 2.34375 -9.65625 L 2.34375 0 L 1.171875 0 L 1.171875 -9.65625 Z M 2.34375 -9.65625 "/></g></g></g><g fill="#000000" fill-opacity="1"><g transform="translate(263.792941, 344.285318)"><g><path d="M 8.9375 -6.640625 L 7.765625 -6.640625 C 7.671875 -7.085938 7.488281 -7.460938 7.21875 -7.765625 C 6.957031 -8.066406 6.640625 -8.296875 6.265625 -8.453125 C 5.890625 -8.617188 5.488281 -8.703125 5.0625 -8.703125 C 4.46875 -8.703125 3.9375 -8.550781 3.46875 -8.25 C 3 -7.957031 2.625 -7.519531 2.34375 -6.9375 C 2.0625 -6.363281 1.921875 -5.660156 1.921875 -4.828125 C 1.921875 -3.992188 2.0625 -3.285156 2.34375 -2.703125 C 2.625 -2.128906 3 -1.695312 3.46875 -1.40625 C 3.9375 -1.113281 4.46875 -0.96875 5.0625 -0.96875 C 5.488281 -0.96875 5.890625 -1.046875 6.265625 -1.203125 C 6.640625 -1.359375 6.957031 -1.585938 7.21875 -1.890625 C 7.488281 -2.191406 7.671875 -2.566406 7.765625 -3.015625 L 8.9375 -3.015625 C 8.820312 -2.359375 8.578125 -1.796875 8.203125 -1.328125 C 7.835938 -0.859375 7.382812 -0.5 6.84375 -0.25 C 6.300781 0 5.707031 0.125 5.0625 0.125 C 4.226562 0.125 3.488281 -0.0703125 2.84375 -0.46875 C 2.207031 -0.875 1.707031 -1.445312 1.34375 -2.1875 C 0.976562 -2.925781 0.796875 -3.804688 0.796875 -4.828125 C 0.796875 -5.847656 0.976562 -6.726562 1.34375 -7.46875 C 1.707031 -8.207031 2.207031 -8.78125 2.84375 -9.1875 C 3.488281 -9.59375 4.226562 -9.796875 5.0625 -9.796875 C 5.707031 -9.796875 6.300781 -9.671875 6.84375 -9.421875 C 7.382812 -9.171875 7.835938 -8.804688 8.203125 -8.328125 C 8.578125 -7.859375 8.820312 -7.296875 8.9375 -6.640625 Z M 8.9375 -6.640625 "/></g></g></g><g fill="#000000" fill-opacity="1"><g transform="translate(274.435841, 344.285318)"><g><path d="M 1.5625 0 L 0.34375 0 L 3.890625 -9.65625 L 5.09375 -9.65625 L 8.640625 0 L 7.421875 0 L 6.4375 -2.734375 L 2.53125 -2.734375 Z M 2.90625 -3.765625 L 6.078125 -3.765625 L 4.53125 -8.125 L 4.453125 -8.125 Z M 2.90625 -3.765625 "/></g></g></g><g fill="#000000" fill-opacity="1"><g transform="translate(136.615397, 361.995717)"><g><path d="M 8.9375 -6.640625 L 7.765625 -6.640625 C 7.671875 -7.085938 7.488281 -7.460938 7.21875 -7.765625 C 6.957031 -8.066406 6.640625 -8.296875 6.265625 -8.453125 C 5.890625 -8.617188 5.488281 -8.703125 5.0625 -8.703125 C 4.46875 -8.703125 3.9375 -8.550781 3.46875 -8.25 C 3 -7.957031 2.625 -7.519531 2.34375 -6.9375 C 2.0625 -6.363281 1.921875 -5.660156 1.921875 -4.828125 C 1.921875 -3.992188 2.0625 -3.285156 2.34375 -2.703125 C 2.625 -2.128906 3 -1.695312 3.46875 -1.40625 C 3.9375 -1.113281 4.46875 -0.96875 5.0625 -0.96875 C 5.488281 -0.96875 5.890625 -1.046875 6.265625 -1.203125 C 6.640625 -1.359375 6.957031 -1.585938 7.21875 -1.890625 C 7.488281 -2.191406 7.671875 -2.566406 7.765625 -3.015625 L 8.9375 -3.015625 C 8.820312 -2.359375 8.578125 -1.796875 8.203125 -1.328125 C 7.835938 -0.859375 7.382812 -0.5 6.84375 -0.25 C 6.300781 0 5.707031 0.125 5.0625 0.125 C 4.226562 0.125 3.488281 -0.0703125 2.84375 -0.46875 C 2.207031 -0.875 1.707031 -1.445312 1.34375 -2.1875 C 0.976562 -2.925781 0.796875 -3.804688 0.796875 -4.828125 C 0.796875 -5.847656 0.976562 -6.726562 1.34375 -7.46875 C 1.707031 -8.207031 2.207031 -8.78125 2.84375 -9.1875 C 3.488281 -9.59375 4.226562 -9.796875 5.0625 -9.796875 C 5.707031 -9.796875 6.300781 -9.671875 6.84375 -9.421875 C 7.382812 -9.171875 7.835938 -8.804688 8.203125 -8.328125 C 8.578125 -7.859375 8.820312 -7.296875 8.9375 -6.640625 Z M 8.9375 -6.640625 "/></g></g></g><g fill="#000000" fill-opacity="1"><g transform="translate(147.258297, 361.995717)"><g><path d="M 1.5625 0 L 0.34375 0 L 3.890625 -9.65625 L 5.09375 -9.65625 L 8.640625 0 L 7.421875 0 L 6.4375 -2.734375 L 2.53125 -2.734375 Z M 2.90625 -3.765625 L 6.078125 -3.765625 L 4.53125 -8.125 L 4.453125 -8.125 Z M 2.90625 -3.765625 "/></g></g></g><g fill="#000000" fill-opacity="1"><g transform="translate(157.221984, 361.995717)"><g><path d="M 1.5625 0 L 0.34375 0 L 3.890625 -9.65625 L 5.09375 -9.65625 L 8.640625 0 L 7.421875 0 L 6.4375 -2.734375 L 2.53125 -2.734375 Z M 2.90625 -3.765625 L 6.078125 -3.765625 L 4.53125 -8.125 L 4.453125 -8.125 Z M 2.90625 -3.765625 "/></g></g></g><g fill="#000000" fill-opacity="1"><g transform="translate(167.185671, 361.995717)"><g><path d="M 7.765625 -6.640625 C 7.566406 -7.273438 7.234375 -7.773438 6.765625 -8.140625 C 6.296875 -8.515625 5.710938 -8.703125 5.015625 -8.703125 C 4.441406 -8.703125 3.921875 -8.550781 3.453125 -8.25 C 2.984375 -7.957031 2.609375 -7.519531 2.328125 -6.9375 C 2.054688 -6.363281 1.921875 -5.660156 1.921875 -4.828125 C 1.921875 -3.992188 2.0625 -3.285156 2.34375 -2.703125 C 2.625 -2.128906 3.003906 -1.695312 3.484375 -1.40625 C 3.960938 -1.113281 4.5 -0.96875 5.09375 -0.96875 C 5.632812 -0.96875 6.113281 -1.082031 6.53125 -1.3125 C 6.957031 -1.539062 7.289062 -1.863281 7.53125 -2.28125 C 7.769531 -2.707031 7.894531 -3.210938 7.90625 -3.796875 L 5.359375 -3.796875 L 5.359375 -4.828125 L 9.03125 -4.828125 L 9.03125 -3.796875 C 9.03125 -2.992188 8.859375 -2.296875 8.515625 -1.703125 C 8.179688 -1.117188 7.71875 -0.664062 7.125 -0.34375 C 6.539062 -0.03125 5.863281 0.125 5.09375 0.125 C 4.238281 0.125 3.488281 -0.0703125 2.84375 -0.46875 C 2.195312 -0.875 1.691406 -1.445312 1.328125 -2.1875 C 0.972656 -2.925781 0.796875 -3.804688 0.796875 -4.828125 C 0.796875 -5.847656 0.972656 -6.726562 1.328125 -7.46875 C 1.691406 -8.207031 2.191406 -8.78125 2.828125 -9.1875 C 3.460938 -9.59375 4.191406 -9.796875 5.015625 -9.796875 C 5.691406 -9.796875 6.304688 -9.660156 6.859375 -9.390625 C 7.421875 -9.128906 7.882812 -8.757812 8.25 -8.28125 C 8.613281 -7.8125 8.859375 -7.265625 8.984375 -6.640625 Z M 7.765625 -6.640625 "/></g></g></g><g fill="#000000" fill-opacity="1"><g transform="translate(178.036115, 361.995717)"><g><path d="M 7.515625 -9.65625 L 8.671875 -9.65625 L 8.671875 -3.265625 C 8.671875 -2.535156 8.5 -1.914062 8.15625 -1.40625 C 7.820312 -0.894531 7.367188 -0.503906 6.796875 -0.234375 C 6.222656 0.0351562 5.597656 0.171875 4.921875 0.171875 C 4.242188 0.171875 3.617188 0.0351562 3.046875 -0.234375 C 2.484375 -0.503906 2.03125 -0.894531 1.6875 -1.40625 C 1.34375 -1.914062 1.171875 -2.535156 1.171875 -3.265625 L 1.171875 -9.65625 L 2.34375 -9.65625 L 2.34375 -3.265625 C 2.34375 -2.765625 2.460938 -2.335938 2.703125 -1.984375 C 2.941406 -1.640625 3.253906 -1.375 3.640625 -1.1875 C 4.035156 -1.007812 4.460938 -0.921875 4.921875 -0.921875 C 5.378906 -0.921875 5.804688 -1.007812 6.203125 -1.1875 C 6.597656 -1.375 6.914062 -1.640625 7.15625 -1.984375 C 7.394531 -2.335938 7.515625 -2.765625 7.515625 -3.265625 Z M 7.515625 -9.65625 "/></g></g></g><g fill="#000000" fill-opacity="1"><g transform="translate(188.867692, 361.995717)"><g><path d="M 1.5625 0 L 0.34375 0 L 3.890625 -9.65625 L 5.09375 -9.65625 L 8.640625 0 L 7.421875 0 L 6.4375 -2.734375 L 2.53125 -2.734375 Z M 2.90625 -3.765625 L 6.078125 -3.765625 L 4.53125 -8.125 L 4.453125 -8.125 Z M 2.90625 -3.765625 "/></g></g></g><g fill="#000000" fill-opacity="1"><g transform="translate(198.831379, 361.995717)"><g><path d="M 8.9375 -6.640625 L 7.765625 -6.640625 C 7.671875 -7.085938 7.488281 -7.460938 7.21875 -7.765625 C 6.957031 -8.066406 6.640625 -8.296875 6.265625 -8.453125 C 5.890625 -8.617188 5.488281 -8.703125 5.0625 -8.703125 C 4.46875 -8.703125 3.9375 -8.550781 3.46875 -8.25 C 3 -7.957031 2.625 -7.519531 2.34375 -6.9375 C 2.0625 -6.363281 1.921875 -5.660156 1.921875 -4.828125 C 1.921875 -3.992188 2.0625 -3.285156 2.34375 -2.703125 C 2.625 -2.128906 3 -1.695312 3.46875 -1.40625 C 3.9375 -1.113281 4.46875 -0.96875 5.0625 -0.96875 C 5.488281 -0.96875 5.890625 -1.046875 6.265625 -1.203125 C 6.640625 -1.359375 6.957031 -1.585938 7.21875 -1.890625 C 7.488281 -2.191406 7.671875 -2.566406 7.765625 -3.015625 L 8.9375 -3.015625 C 8.820312 -2.359375 8.578125 -1.796875 8.203125 -1.328125 C 7.835938 -0.859375 7.382812 -0.5 6.84375 -0.25 C 6.300781 0 5.707031 0.125 5.0625 0.125 C 4.226562 0.125 3.488281 -0.0703125 2.84375 -0.46875 C 2.207031 -0.875 1.707031 -1.445312 1.34375 -2.1875 C 0.976562 -2.925781 0.796875 -3.804688 0.796875 -4.828125 C 0.796875 -5.847656 0.976562 -6.726562 1.34375 -7.46875 C 1.707031 -8.207031 2.207031 -8.78125 2.84375 -9.1875 C 3.488281 -9.59375 4.226562 -9.796875 5.0625 -9.796875 C 5.707031 -9.796875 6.300781 -9.671875 6.84375 -9.421875 C 7.382812 -9.171875 7.835938 -8.804688 8.203125 -8.328125 C 8.578125 -7.859375 8.820312 -7.296875 8.9375 -6.640625 Z M 8.9375 -6.640625 "/></g></g></g><g fill="#000000" fill-opacity="1"><g transform="translate(209.474279, 361.995717)"><g><path d="M 1.171875 0 L 1.171875 -9.65625 L 7 -9.65625 L 7 -8.625 L 2.34375 -8.625 L 2.34375 -5.359375 L 6.703125 -5.359375 L 6.703125 -4.3125 L 2.34375 -4.3125 L 2.34375 -1.03125 L 7.078125 -1.03125 L 7.078125 0 Z M 1.171875 0 "/></g></g></g><g fill="#000000" fill-opacity="1"><g transform="translate(218.400265, 361.995717)"><g><path d="M 8.828125 -9.65625 L 8.828125 0 L 7.703125 0 L 2.4375 -7.578125 L 2.34375 -7.578125 L 2.34375 0 L 1.171875 0 L 1.171875 -9.65625 L 2.296875 -9.65625 L 7.578125 -2.0625 L 7.671875 -2.0625 L 7.671875 -9.65625 Z M 3.546875 -10.53125 L 2.671875 -10.578125 C 2.671875 -11.054688 2.804688 -11.445312 3.078125 -11.75 C 3.359375 -12.0625 3.703125 -12.21875 4.109375 -12.21875 C 4.347656 -12.21875 4.550781 -12.164062 4.71875 -12.0625 C 4.894531 -11.957031 5.066406 -11.851562 5.234375 -11.75 C 5.398438 -11.65625 5.597656 -11.609375 5.828125 -11.609375 C 6.003906 -11.609375 6.15625 -11.675781 6.28125 -11.8125 C 6.40625 -11.957031 6.46875 -12.128906 6.46875 -12.328125 L 7.3125 -12.25 C 7.3125 -11.757812 7.171875 -11.367188 6.890625 -11.078125 C 6.617188 -10.785156 6.28125 -10.640625 5.875 -10.640625 C 5.65625 -10.640625 5.472656 -10.671875 5.328125 -10.734375 C 5.191406 -10.796875 5.066406 -10.863281 4.953125 -10.9375 C 4.847656 -11.019531 4.734375 -11.09375 4.609375 -11.15625 C 4.492188 -11.21875 4.34375 -11.25 4.15625 -11.25 C 3.976562 -11.25 3.832031 -11.175781 3.71875 -11.03125 C 3.601562 -10.894531 3.546875 -10.726562 3.546875 -10.53125 Z M 3.546875 -10.53125 "/></g></g></g><g fill="#000000" fill-opacity="1"><g transform="translate(229.38277, 361.995717)"><g><path d="M 1.5625 0 L 0.34375 0 L 3.890625 -9.65625 L 5.09375 -9.65625 L 8.640625 0 L 7.421875 0 L 6.4375 -2.734375 L 2.53125 -2.734375 Z M 2.90625 -3.765625 L 6.078125 -3.765625 L 4.53125 -8.125 L 4.453125 -8.125 Z M 2.90625 -3.765625 "/></g></g></g><g clip-path="url(#756875476d)"><path fill="#40b93c" d="M 128.902344 143.773438 C 128.902344 143.773438 124.488281 145.929688 128.304688 152.351562 C 132.121094 158.773438 137.253906 167.589844 134.011719 169.183594 C 130.769531 170.773438 115.847656 163.574219 115.847656 163.574219 C 120.492188 164.757812 125.125 165.953125 129.636719 165.921875 C 125.371094 161.636719 122.679688 150.433594 120.859375 148.167969 C 120.367188 147.503906 119.769531 146.964844 119.058594 146.550781 C 118.34375 146.132812 117.582031 145.875 116.761719 145.769531 L 122.609375 160.683594 L 120.332031 160.105469 C 120.332031 160.105469 115.164062 145.632812 113.78125 143.34375 C 112.398438 141.058594 108.375 140.132812 108.375 140.132812 L 115.691406 160.105469 C 114.398438 159.511719 113.324219 158.648438 112.46875 157.511719 C 111.476562 155.921875 106.664062 140.960938 105.210938 138.851562 C 103.761719 136.746094 99.832031 135.480469 99.832031 135.480469 L 107.089844 156.140625 C 105.898438 155.71875 104.960938 154.976562 104.277344 153.914062 C 103.609375 152.460938 97.933594 135.453125 96.902344 134.03125 C 95.867188 132.609375 90.398438 131.535156 90.398438 131.535156 C 90.398438 131.535156 99.136719 159.898438 102.777344 166.328125 C 106.414062 172.761719 115.480469 176.320312 140.433594 179.253906 C 165.386719 182.183594 162.96875 202.433594 162.96875 202.433594 C 169.78125 186.699219 173.167969 173.746094 154.171875 165.136719 C 140.144531 158.804688 131.992188 149.171875 128.902344 143.773438 Z M 159.628906 268.625 L 124.308594 268.625 C 124.308594 268.625 152.273438 259.367188 158.367188 253.066406 C 158.066406 258.308594 158.484375 263.496094 159.628906 268.625 Z M 199.554688 158.535156 C 213.777344 150.582031 218.859375 143.453125 218.859375 143.453125 C 218.859375 143.453125 222.757812 147.183594 218.859375 152.949219 C 214.960938 158.714844 212.585938 161.894531 212.585938 161.894531 C 212.585938 161.894531 228.183594 159.011719 234.109375 149.359375 C 240.035156 139.707031 244.953125 139.019531 248.515625 140.414062 L 235.035156 155.742188 C 236.164062 155.800781 237.265625 155.660156 238.34375 155.3125 C 239.277344 154.808594 251.644531 141.675781 254.527344 140.242188 C 255.492188 139.820312 256.5 139.589844 257.550781 139.542969 C 258.601562 139.5 259.625 139.648438 260.621094 139.984375 L 241.414062 159.132812 C 243.4375 159.054688 245.273438 158.433594 246.921875 157.261719 C 249.804688 155.273438 261.664062 142.183594 264.539062 140.582031 C 267.410156 138.980469 271.070312 140.660156 271.070312 140.660156 L 248.542969 161.328125 C 248.542969 161.328125 251.417969 161.757812 253.105469 160.394531 C 254.796875 159.03125 267.691406 146.84375 270.742188 145.402344 C 271.640625 144.984375 272.585938 144.800781 273.578125 144.863281 C 274.570312 144.921875 275.488281 145.214844 276.328125 145.742188 C 276.328125 145.742188 259.378906 164.210938 252.09375 167.511719 C 244.804688 170.8125 212.546875 174.082031 198.203125 179.671875 C 184.75 184.871094 180.398438 210.25 185.664062 236.863281 C 191.042969 255.75 213.660156 263.59375 249.140625 268.84375 L 166.570312 268.84375 C 163.226562 241.863281 163.578125 178.65625 199.554688 158.535156 Z M 199.554688 158.535156 " fill-opacity="1" fill-rule="evenodd"/></g><g clip-path="url(#f61073283a)"><path fill="#40b93c" d="M 121.585938 20.285156 L 138.722656 48.347656 L 132.0625 42.042969 C 119.4375 44.242188 108.878906 27.539062 117.082031 13.484375 C 117.082031 13.484375 141.316406 14.765625 137.023438 38.992188 Z M 188.339844 30.621094 L 186.261719 53.488281 L 188.507812 47.523438 C 197.058594 45.007812 198.5 31.316406 189.054688 25.066406 C 189.054688 25.066406 174.304688 33.328125 184.441406 47.144531 Z M 160.214844 57.621094 L 166.777344 80.855469 L 163.289062 75.078125 C 153.953125 74.085938 149.808594 60.238281 158.386719 51.925781 C 158.386719 51.925781 175.285156 57.632812 167.433594 73.90625 Z M 252.183594 69.769531 L 221.175781 85.179688 L 230.679688 83.320312 C 240.621094 92.328125 259.4375 83.320312 259.996094 66.222656 C 259.996094 66.222656 237.667969 53.773438 227.925781 77.804688 Z M 105.339844 69.769531 L 136.347656 85.179688 L 126.855469 83.320312 C 116.851562 92.328125 98.074219 83.320312 97.515625 66.222656 C 97.515625 66.222656 119.84375 53.773438 129.597656 77.804688 Z M 57.953125 84.464844 L 87.578125 90.847656 L 79.117188 91.3125 C 72.574219 101.066406 54.710938 97.496094 50.546875 83.082031 C 50.546875 83.082031 66.800781 67.703125 80.257812 85.976562 Z M 299.582031 84.464844 L 269.9375 90.847656 L 278.398438 91.3125 C 284.9375 101.113281 302.800781 97.546875 306.976562 83.132812 C 306.976562 83.132812 290.714844 67.753906 277.261719 86.023438 Z M 148.285156 103.660156 L 169.9375 115.996094 L 163.1875 114.289062 C 155.644531 120.351562 142.519531 113.132812 142.820312 100.796875 C 142.820312 100.796875 159.371094 92.773438 165.394531 110.429688 Z M 246.875 118.503906 L 215.996094 116.515625 L 224.175781 119.328125 C 227.867188 130.769531 246.40625 132.25 254.507812 119.238281 C 254.507812 119.238281 242.816406 99.625 224.527344 113.820312 Z M 65.664062 131.941406 L 86.492188 130.132812 L 81.023438 132.121094 C 78.699219 139.90625 66.191406 141.179688 60.515625 132.527344 C 60.515625 132.527344 68.121094 119.089844 80.695312 128.402344 Z M 120.609375 137.480469 L 134.46875 133.890625 L 130.988281 135.878906 C 130.304688 141.40625 122.042969 143.683594 117.199219 138.492188 C 117.199219 138.492188 120.808594 128.550781 130.351562 133.414062 Z M 197.308594 137.371094 L 180.714844 153.40625 L 186.382812 150.304688 C 194.542969 154.011719 204.664062 144.527344 201.570312 133.535156 C 201.570312 133.535156 184.878906 130.132812 183.519531 147.339844 Z M 304.671875 156.707031 L 281.875 150.472656 L 287.550781 153.832031 C 288.546875 162.949219 302.167969 166.894531 310.226562 158.4375 C 310.226562 158.4375 304.511719 141.984375 288.667969 149.777344 Z M 274.5 182.074219 L 259.777344 169.886719 L 262.847656 174.273438 C 260.542969 181.320312 269.269531 188.777344 278.050781 185.207031 C 278.050781 185.207031 279.3125 171.160156 265.015625 171.628906 Z M 81.363281 181.789062 L 97.109375 168.765625 L 93.828125 173.4375 C 96.292969 180.992188 86.949219 188.957031 77.574219 185.15625 C 77.574219 185.15625 76.214844 170.125 91.492188 170.632812 Z M 81.363281 181.789062 " fill-opacity="1" fill-rule="evenodd"/></g><g clip-path="url(#7e213c7466)"><path fill="#ff66c4" d="M 173.953125 15.460938 L 174.808594 37.9375 L 172.921875 31.972656 C 164.667969 29.082031 163.972656 15.582031 173.546875 9.933594 C 173.546875 9.933594 187.585938 18.792969 176.925781 31.804688 Z M 235.9375 20.285156 L 218.800781 48.347656 L 225.511719 42.042969 C 238.105469 44.242188 248.664062 27.539062 240.421875 13.484375 C 240.421875 13.484375 216.183594 14.765625 220.480469 38.992188 Z M 148.546875 32.390625 L 154.371094 54.382812 L 151.179688 48.875 C 142.402344 47.878906 138.695312 34.699219 146.914062 27.003906 C 146.914062 27.003906 162.730469 32.628906 155.097656 47.878906 Z M 103.105469 41.191406 L 120.878906 58.746094 L 114.796875 55.324219 C 105.90625 59.242188 95.070312 48.855469 98.550781 36.996094 C 98.550781 36.996094 116.652344 33.496094 117.925781 52.15625 Z M 254.410156 41.191406 L 236.632812 58.746094 L 242.71875 55.324219 C 251.617188 59.242188 262.453125 48.855469 258.972656 36.996094 C 258.972656 36.996094 240.859375 33.496094 239.597656 52.15625 Z M 83.710938 54.898438 L 96.136719 64.582031 L 92.070312 62.902344 C 86.820312 65.984375 79.265625 60.304688 80.546875 52.652344 C 80.546875 52.652344 91.613281 49.113281 93.800781 60.683594 Z M 273.8125 54.898438 L 261.378906 64.582031 L 265.445312 62.902344 C 270.703125 66.011719 278.257812 60.335938 276.976562 52.652344 C 276.976562 52.652344 265.910156 49.113281 263.722656 60.683594 Z M 176.390625 51.082031 L 175.894531 66.242188 L 174.898438 62.105469 C 169.492188 59.769531 169.652344 50.652344 176.378906 47.3125 C 176.378906 47.3125 185.398438 53.945312 177.601562 62.226562 Z M 224.792969 57.703125 L 211.105469 74.671875 L 216.074219 71.101562 C 224.117188 73.628906 232.46875 63.585938 228.304688 53.644531 C 228.304688 53.644531 212.277344 52.402344 213.023438 68.695312 Z M 195.785156 62.921875 L 186.839844 94.574219 L 191.582031 86.699219 C 204.296875 85.417969 209.953125 66.488281 198.261719 55.167969 C 198.261719 55.167969 175.265625 62.941406 185.945312 85.109375 Z M 151.050781 82.316406 L 165.207031 99.027344 L 160.15625 95.566406 C 152.105469 98.300781 143.4375 88.441406 147.402344 78.300781 C 147.402344 78.300781 163.488281 76.660156 163.140625 93.054688 Z M 124.667969 92.894531 L 139.6875 98.28125 L 135.242188 97.933594 C 131.148438 102.605469 122.070312 99.503906 120.890625 91.691406 C 120.890625 91.691406 130.441406 84.792969 136.199219 95.261719 Z M 97.328125 95.398438 L 120.410156 100.371094 L 113.820312 100.726562 C 108.730469 108.390625 94.8125 105.617188 91.5625 94.40625 C 91.5625 94.40625 104.238281 82.476562 114.707031 96.660156 Z M 260.183594 95.398438 L 237.109375 100.371094 L 243.691406 100.726562 C 248.792969 108.363281 262.699219 105.589844 265.949219 94.355469 C 265.949219 94.355469 253.285156 82.425781 242.808594 96.613281 Z M 225.050781 97.855469 L 200.199219 106.800781 L 207.554688 106.234375 C 214.304688 113.9375 229.308594 108.820312 231.253906 95.914062 C 231.253906 95.914062 215.480469 84.511719 205.964844 101.8125 Z M 175.933594 88.628906 L 175.246094 109.875 L 173.816406 104.117188 C 166.230469 100.835938 166.460938 88.0625 175.875 83.378906 C 175.875 83.378906 188.519531 92.664062 177.601562 104.257812 Z M 195.167969 101.652344 L 182.941406 112.347656 L 187.027344 110.359375 C 192.632812 113.253906 200.082031 106.929688 198.28125 99.097656 C 198.28125 99.097656 186.679688 96.113281 185.117188 108.183594 Z M 70.695312 107.726562 L 97 109.714844 L 89.761719 111.125 C 85.339844 120.351562 69.433594 119.398438 64.15625 107.46875 C 64.15625 107.46875 76.34375 92.277344 90.121094 106.472656 Z M 286.828125 107.726562 L 260.523438 109.714844 L 267.761719 111.125 C 272.222656 120.351562 288.050781 119.398438 293.367188 107.46875 C 293.367188 107.46875 281.179688 92.277344 267.402344 106.472656 Z M 318.71875 112.527344 L 295.59375 113.023438 L 301.867188 114.605469 C 305.335938 122.886719 319.246094 122.796875 324.453125 112.617188 C 324.453125 112.617188 314.511719 98.699219 301.777344 110.488281 Z M 213.023438 119.835938 L 197.117188 123.660156 L 201.691406 123.8125 C 205.347656 129.011719 214.941406 126.851562 217.011719 119.019531 C 217.011719 119.019531 208.0625 110.925781 201.003906 121.007812 Z M 110.628906 118.503906 L 141.507812 116.515625 L 133.324219 119.328125 C 129.628906 130.769531 111.097656 132.25 102.996094 119.238281 C 102.996094 119.238281 114.6875 99.625 132.976562 113.820312 Z M 163.058594 124.644531 L 175.355469 136.953125 L 171.140625 134.546875 C 164.9375 137.242188 157.421875 129.964844 159.898438 121.714844 C 159.898438 121.714844 172.523438 119.347656 173.339844 132.351562 Z M 223.550781 132.855469 L 207.863281 135.988281 L 212.328125 136.308594 C 215.699219 141.527344 225.152344 139.785156 227.46875 132.222656 C 227.46875 132.222656 219.019531 123.96875 211.769531 133.503906 Z M 305.894531 132.71875 L 275.078125 130.042969 L 283.199219 133.027344 C 286.628906 144.546875 305.070312 146.4375 313.519531 133.632812 C 313.519531 133.632812 302.285156 113.75 283.695312 127.539062 Z M 63.699219 149.507812 L 78.429688 145.484375 L 74.761719 147.660156 C 74.105469 153.554688 65.296875 156.109375 60.089844 150.640625 C 60.089844 150.640625 63.777344 139.996094 74.007812 145.023438 Z M 161.449219 143.445312 L 178.238281 162.195312 L 172.335938 158.375 C 163.148438 161.777344 152.890625 150.652344 157.132812 138.929688 C 157.132812 138.929688 175.554688 136.546875 175.675781 155.382812 Z M 283.925781 166.367188 L 268.457031 159.023438 L 272.085938 162.132812 C 271.648438 168.773438 280.882812 173.316406 287.703125 168.289062 C 287.703125 168.289062 285.714844 155.8125 273.386719 159.339844 Z M 99.773438 180.753906 L 105.738281 174.121094 L 104.636719 176.351562 C 106.1875 179.441406 102.648438 183.46875 98.410156 182.453125 C 98.410156 182.453125 96.839844 176.070312 103.453125 175.296875 Z M 255.789062 180.753906 L 249.824219 174.121094 L 250.929688 176.351562 C 249.378906 179.441406 252.917969 183.46875 257.164062 182.453125 C 257.164062 182.453125 258.722656 176.070312 252.113281 175.296875 Z M 255.789062 180.753906 " fill-opacity="1" fill-rule="evenodd"/></g><path fill="#ea33a6" d="M 166.199219 38.476562 L 168.84375 51.339844 L 167.195312 48.058594 C 162.175781 47.175781 160.484375 39.460938 165.484375 35.316406 C 165.484375 35.316406 174.433594 39.09375 169.460938 47.601562 Z M 209.367188 32.054688 L 203.898438 52.652344 L 206.878906 47.503906 C 215.121094 46.507812 218.589844 34.199219 210.855469 26.984375 C 210.855469 26.984375 196.023438 32.253906 203.183594 46.539062 Z M 132.75 57.703125 L 146.40625 74.671875 L 141.4375 71.101562 C 133.394531 73.628906 125.023438 63.585938 129.210938 53.644531 C 129.210938 53.644531 145.246094 52.402344 144.5 68.695312 Z M 84.683594 74.8125 L 99.515625 82.1875 L 94.972656 81.292969 C 90.191406 85.605469 81.203125 81.292969 80.945312 73.109375 C 80.945312 73.109375 91.632812 67.144531 96.292969 78.648438 Z M 272.828125 74.8125 L 257.996094 82.1875 L 262.539062 81.292969 C 267.324219 85.605469 276.308594 81.292969 276.578125 73.109375 C 276.578125 73.109375 265.890625 67.144531 261.226562 78.648438 Z M 210.25 81.988281 L 197.605469 94.535156 L 201.9375 92.078125 C 208.273438 94.863281 215.984375 87.445312 213.492188 78.996094 C 213.492188 78.996094 200.566406 76.53125 199.703125 89.832031 Z M 90.957031 125.511719 L 103.960938 124.378906 L 100.539062 125.640625 C 99.089844 130.5 91.285156 131.304688 87.746094 125.898438 C 87.746094 125.898438 92.488281 117.519531 100.332031 123.332031 Z M 269.707031 127.945312 L 251.136719 126.335938 L 256.027344 128.144531 C 258.097656 135.105469 269.230469 136.226562 274.300781 128.503906 C 274.300781 128.503906 267.53125 116.574219 256.308594 124.835938 Z M 189.183594 119.496094 L 176.261719 133.882812 L 180.804688 130.957031 C 187.832031 133.5625 195.714844 124.992188 192.457031 116.046875 C 192.457031 116.046875 178.320312 114.207031 178.230469 128.660156 Z M 139.023438 127.261719 L 158.1875 132.738281 L 152.621094 132.679688 C 147.910156 138.832031 136.335938 135.660156 134.230469 126.078125 C 134.230469 126.078125 145.554688 116.691406 153.59375 129.257812 Z M 72.804688 165.097656 L 93.101562 155.511719 L 88.320312 159.597656 C 88.898438 168.289062 76.800781 174.242188 67.851562 167.652344 C 67.851562 167.652344 70.488281 151.296875 86.621094 155.980469 Z M 72.804688 165.097656 " fill-opacity="1" fill-rule="evenodd"/></svg>